<mxfile host="65bd71144e">
    <diagram id="XLQ9ZA8FXm9MJyRXNUf3" name="Page-1">
        <mxGraphModel dx="680" dy="384" grid="1" gridSize="10" guides="1" tooltips="1" connect="1" arrows="1" fold="1" page="1" pageScale="1" pageWidth="850" pageHeight="1100" math="0" shadow="0">
            <root>
                <mxCell id="0"/>
                <mxCell id="1" parent="0"/>
                <mxCell id="2" value="Prensa" style="rounded=0;whiteSpace=wrap;html=1;" vertex="1" parent="1">
                    <mxGeometry x="400" y="90" width="60" height="20" as="geometry"/>
                </mxCell>
                <mxCell id="3" value="Nombre" style="ellipse;whiteSpace=wrap;html=1;" vertex="1" parent="1">
                    <mxGeometry x="320" y="85" width="60" height="30" as="geometry"/>
                </mxCell>
                <mxCell id="4" value="Ubicacion geografica" style="rounded=0;whiteSpace=wrap;html=1;" vertex="1" parent="1">
                    <mxGeometry x="590" y="100" width="90" height="30" as="geometry"/>
                </mxCell>
                <mxCell id="5" value="Ciudad" style="ellipse;whiteSpace=wrap;html=1;" vertex="1" parent="1">
                    <mxGeometry x="650" y="170" width="50" height="40" as="geometry"/>
                </mxCell>
                <mxCell id="6" value="Region" style="ellipse;whiteSpace=wrap;html=1;" vertex="1" parent="1">
                    <mxGeometry x="730" y="130" width="55" height="35" as="geometry"/>
                </mxCell>
                <mxCell id="7" value="Pais" style="ellipse;whiteSpace=wrap;html=1;" vertex="1" parent="1">
                    <mxGeometry x="730" y="80" width="45" height="30" as="geometry"/>
                </mxCell>
                <mxCell id="8" value="Continente" style="ellipse;whiteSpace=wrap;html=1;" vertex="1" parent="1">
                    <mxGeometry x="600" y="50" width="65" height="40" as="geometry"/>
                </mxCell>
            </root>
        </mxGraphModel>
    </diagram>
</mxfile>